<svg xmlns="http://www.w3.org/2000/svg" width="1280" height="670" viewBox="0 0 1280 670" role="img" aria-label="やらなきゃと思うのに、 始められない 気合いではなく、始め方を小さく設計する">
  <defs>
    <linearGradient id="bg" x1="0" y1="0" x2="1" y2="1">
      <stop offset="0" stop-color="#f8f5ed"/>
      <stop offset="0.55" stop-color="#ecf4ef"/>
      <stop offset="1" stop-color="#fff1e7"/>
    </linearGradient>
    <filter id="shadow" x="-10%" y="-10%" width="120%" height="130%">
      <feDropShadow dx="0" dy="20" stdDeviation="24" flood-color="#24342f" flood-opacity="0.18"/>
    </filter>
  </defs>
  <rect width="1280" height="670" fill="url(#bg)"/>
  <path d="M0 525 C180 455 310 575 505 520 C725 458 835 358 1280 430 L1280 670 L0 670 Z" fill="#dcebe5" opacity="0.78"/>
  <path d="M970 70 C1060 90 1120 150 1128 230 C1138 326 1057 390 965 372 C880 356 832 280 858 198 C878 132 910 82 970 70 Z" fill="#e7865e" opacity="0.18"/>
  <path d="M158 118 C245 72 355 70 430 132 C508 196 505 302 430 356 C352 413 226 386 155 318 C82 248 80 160 158 118 Z" fill="#3d8b75" opacity="0.12"/>
  <g filter="url(#shadow)">
    <rect x="150" y="122" width="980" height="424" rx="28" fill="#fffdf8"/>
    <rect x="182" y="154" width="916" height="360" rx="20" fill="#fbfaf6" stroke="#e5ded3" stroke-width="2"/>
  </g>
  <text x="230" y="226" font-family="-apple-system,BlinkMacSystemFont,'Hiragino Sans','Noto Sans JP',sans-serif" font-size="30" font-weight="800" fill="#3d8b75">始められないタイプ</text>
  <text x="230" y="318" font-family="-apple-system,BlinkMacSystemFont,'Hiragino Sans','Noto Sans JP',sans-serif" font-size="68" font-weight="900" fill="#24342f">やらなきゃと思うのに、</text>
  <text x="230" y="400" font-family="-apple-system,BlinkMacSystemFont,'Hiragino Sans','Noto Sans JP',sans-serif" font-size="68" font-weight="900" fill="#24342f">始められない</text>
  <text x="232" y="470" font-family="-apple-system,BlinkMacSystemFont,'Hiragino Sans','Noto Sans JP',sans-serif" font-size="28" font-weight="700" fill="#6b635b">気合いではなく、始め方を小さく設計する</text>
  <g transform="translate(905 224)">
    <rect x="0" y="0" width="150" height="188" rx="18" fill="#3d8b75" opacity="0.14"/>
    <rect x="24" y="28" width="150" height="188" rx="18" fill="#ffffff" stroke="#3d8b75" stroke-width="5"/>
    <line x1="52" y1="76" x2="142" y2="76" stroke="#e7865e" stroke-width="10" stroke-linecap="round"/>
    <line x1="52" y1="114" x2="166" y2="114" stroke="#3d8b75" stroke-width="10" stroke-linecap="round" opacity="0.75"/>
    <line x1="52" y1="152" x2="130" y2="152" stroke="#24342f" stroke-width="10" stroke-linecap="round" opacity="0.35"/>
  </g>
</svg>